<svg xmlns="http://www.w3.org/2000/svg" xmlns:xlink="http://www.w3.org/1999/xlink" width="500" zoomAndPan="magnify" viewBox="0 0 375 374.999991" height="500" preserveAspectRatio="xMidYMid meet" version="1.0"><defs><clipPath id="c46f9986f6"><path d="M 102 88.488281 L 244 88.488281 L 244 218 L 102 218 Z M 102 88.488281 " clip-rule="nonzero"/></clipPath><clipPath id="34622683a7"><path d="M 67.847656 108 L 307.097656 108 L 307.097656 286.488281 L 67.847656 286.488281 Z M 67.847656 108 " clip-rule="nonzero"/></clipPath></defs><g clip-path="url(#c46f9986f6)"><path fill="#01b8ea" d="M 210.773438 130.796875 C 210.09375 130.117188 209.328125 129.460938 208.558594 128.875 C 200.890625 122.925781 190.421875 119.941406 177.375 119.941406 L 136.8125 119.941406 L 136.8125 181.449219 C 124.535156 192.484375 113.023438 204.378906 102.375 217.132812 L 102.375 88.578125 L 180.359375 88.578125 C 191.871094 88.578125 202.226562 90.117188 211.542969 93.28125 C 220.949219 96.355469 228.816406 100.855469 235.328125 106.625 C 238.496094 109.609375 241.367188 112.773438 243.875 116.121094 C 232.546875 120.417969 221.515625 125.324219 210.773438 130.796875 Z M 210.773438 130.796875 " fill-opacity="1" fill-rule="evenodd"/></g><g clip-path="url(#34622683a7)"><path fill="#017ec3" d="M 181.695312 191.332031 C 192.910156 190.652344 201.933594 187.398438 208.648438 181.539062 C 216.425781 174.914062 220.15625 166.390625 220.15625 156.011719 L 220.15625 155.828125 C 205.980469 166.480469 193.023438 178.171875 181.695312 191.332031 Z M 252.785156 134.527344 C 254.617188 140.769531 255.566406 147.484375 255.566406 154.675781 L 255.566406 155.242188 C 255.566406 166.367188 253.464844 176.160156 249.324219 184.503906 C 245.097656 192.847656 239.445312 199.949219 232.253906 205.601562 C 225.0625 211.164062 216.71875 215.484375 207.109375 218.46875 C 197.410156 221.339844 187.167969 222.785156 176.222656 222.785156 L 158.972656 222.785156 C 149.65625 238.617188 142.285156 255.984375 136.8125 275.363281 L 136.8125 286.398438 L 67.847656 286.398438 C 116.394531 192.28125 202.925781 127.609375 307.097656 108.136719 C 287.902344 116.210938 269.675781 124.847656 252.785156 134.527344 Z M 252.785156 134.527344 " fill-opacity="1" fill-rule="evenodd"/></g></svg>